/* XPM */
static char * bitcoin32_xpm[] = {
"32 32 114 2",
"  	c None",
". 	c #CC3A8A",
"+ 	c #CF378F",
"@ 	c #D0358C",
"# 	c #D33A91",
"$ 	c #D03593",
"% 	c #201A1A",
"& 	c #1F1717",
"* 	c #1D1D1D",
"= 	c #211A1A",
"- 	c #D03991",
"; 	c #D1388D",
"> 	c #CE368B",
", 	c #CD3790",
"' 	c #CD388D",
") 	c #1E171E",
"! 	c #211B1B",
"~ 	c #1E191E",
"{ 	c #221C1C",
"] 	c #1F1A1A",
"^ 	c #D13B91",
"/ 	c #D23891",
"( 	c #D13A92",
"_ 	c #D23A8F",
": 	c #D1398F",
"< 	c #211C1C",
"[ 	c #211D1D",
"} 	c #1E1A1E",
"| 	c #201C1C",
"1 	c #CE3B8F",
"2 	c #D03990",
"3 	c #CF388E",
"4 	c #D03B91",
"5 	c #D13B92",
"6 	c #1F171F",
"7 	c #1F1B1F",
"8 	c #1F181F",
"9 	c #1F1B1B",
"0 	c #CE398F",
"a 	c #D23990",
"b 	c #D03C91",
"c 	c #D13992",
"d 	c #D23C93",
"e 	c #CF3A91",
"f 	c #221C1F",
"g 	c #1F1A1F",
"h 	c #211E1E",
"i 	c #1F1919",
"j 	c #D13A91",
"k 	c #D13A8F",
"l 	c #D2348E",
"m 	c #CF3990",
"n 	c #201E1E",
"o 	c #211C1E",
"p 	c #CF3A90",
"q 	c #D03891",
"r 	c #D23A90",
"s 	c #D03A90",
"t 	c #D03B92",
"u 	c #201C1E",
"v 	c #201D1D",
"w 	c #211D1F",
"x 	c #CF3A8F",
"y 	c #CF3B90",
"z 	c #CF3B92",
"A 	c #221D1D",
"B 	c #D13A90",
"C 	c #D23992",
"D 	c #CE3990",
"E 	c #D13B90",
"F 	c #D03B90",
"G 	c #D03A92",
"H 	c #D03A91",
"I 	c #D33892",
"J 	c #CD3791",
"K 	c #CF3B91",
"L 	c #D23B92",
"M 	c #D03A8F",
"N 	c #D13A93",
"O 	c #CE368D",
"P 	c #211E1F",
"Q 	c #CE388E",
"R 	c #221D1F",
"S 	c #211D1E",
"T 	c #221E1F",
"U 	c #221B1F",
"V 	c #CE3B90",
"W 	c #D0398E",
"X 	c #CD3A8F",
"Y 	c #D43C91",
"Z 	c #D23C8E",
"` 	c #CD3A8E",
" .	c #1E1E1E",
"..	c #221E1E",
"+.	c #D03C8F",
"@.	c #1C1C1C",
"#.	c #D03B8F",
"$.	c #D4388D",
"%.	c #201B1B",
"&.	c #D23B91",
"*.	c #221D1E",
"=.	c #CD398F",
"-.	c #CD3A90",
";.	c #211C1F",
">.	c #CF3B8E",
",.	c #231F20",
"'.	c #1F1C1C",
").	c #D23892",
"!.	c #D13C92",
"~.	c #221F1F",
"{.	c #CF3A92",
"].	c #1F1F1F",
"^.	c #221B1B",
"/.	c #D3378F",
"                                                                ",
"                                                                ",
"                                                                ",
"                                                                ",
"    .     + @     #     + $         % &     *     = &     *     ",
"      -     ; >     -     , '     ) !     ~ &   % {     ]       ",
"      ^ /     (     _ :     (     <     [ }     [     | ]       ",
"        1 2   3 4     5 '   + 4       6 7     [ [   8 9         ",
"        ' 0     a b   2 c     d e     f g   [ h     { i         ",
"          2 j     k l   - m     (     [     n     o f           ",
"            p q   r 4     p +   s t       u v   h w             ",
"            x y +   4 (   _ 5     z -   7 w     [ A             ",
"              s B     y (   B ^   C 5 D       u h               ",
"                E F   G 4     H e   ( ^     n h                 ",
"                ( s I   G y   e s J   K L   h 7                 ",
"                  ( H   2 ^ c   H 4   D 4 C                     ",
"                    ^ s   j K -   4 B   L ^ C                   ",
"                    5 H M   e j   t 4 N   H s                   ",
"                o v   e 4 O ^ 4 4   4 H $ e 4 z                 ",
"              9 P w     H 4   ^ H 2 k 4 y   4 ^ Q               ",
"              R S   *   K 4 H   ^ K ' E H D   4 4               ",
"            w T U | P [   4 ^ r V ^ e   ^ 5 W X t j             ",
"          h T w   T P <   Y 4 5 Z F 5 L ` ^ j   p t E           ",
"         ...T % w T A A ..  F 4 4   4 5 / ^ ^ 4 ' F 4 +.        ",
"        h T v f T h @.h T g   F ^ ( #.^ t $.F 5 - E 4 5         ",
"      ..T h %.w ..[ ..T .. .@.+.^ 4 / &.4 H e F ^ X 5 5 e       ",
"    v P ..| ..T n v T *.A *.R   E 5 s F 4 t e F 5 G =.^ 4 -.    ",
"  = T T o n T R 7 T T ;...T R     5 4 y E 5 4 5 t t 4 z 4 5 >.  ",
"  R ,.R f T T o R ,.R h T T '.    ).5 4 t 5 !.^ E 4 4 E 4 !.5   ",
"h T T o h ~.P n T w { ..R [         z 4 ^ 2 4 5 {.F 5 F E G !.2 ",
"  ].^.  ].].    ].*   ].].            /./.  Z /.+   /./.  ' /.  ",
"                                                                "};
