/* XPM */
static char * bitcoin16_xpm[] = {
"16 16 77 1",
" 	c None",
".	c #CE3790",
"+	c #D53790",
"@	c #D0368B",
"#	c #CC3A91",
"$	c #1E171E",
"%	c #221B1B",
"&	c #1B1B1B",
"*	c #CC388D",
"=	c #D23790",
"-	c #D33B92",
";	c #CA3A8F",
">	c #CF3A8F",
",	c #CF3B8E",
"'	c #D03991",
")	c #201A1A",
"!	c #201B1B",
"~	c #211B1B",
"{	c #221C1C",
"]	c #D03B90",
"^	c #CF388D",
"/	c #D1398F",
"(	c #D23A8F",
"_	c #CF3B8F",
":	c #D33991",
"<	c #BB3481",
"[	c #1E1E1E",
"}	c #211C1C",
"|	c #221D1D",
"1	c #CD3A8E",
"2	c #D03990",
"3	c #D0398F",
"4	c #D13B92",
"5	c #D33A91",
"6	c #CE3A90",
"7	c #221E1E",
"8	c #D23C90",
"9	c #D13991",
"0	c #CF3B91",
"a	c #D23992",
"b	c #D03A90",
"c	c #CF3A91",
"d	c #1F191F",
"e	c #D03B8F",
"f	c #CF3991",
"g	c #CF3A92",
"h	c #D13A8F",
"i	c #D23A90",
"j	c #1F1717",
"k	c #211E1E",
"l	c #B6347D",
"m	c #D03B92",
"n	c #D13B90",
"o	c #D13992",
"p	c #D13A92",
"q	c #D23C8E",
"r	c #211D1F",
"s	c #1F1B1F",
"t	c #CF3A90",
"u	c #D03B91",
"v	c #D03A91",
"w	c #D13B91",
"x	c #5A2545",
"y	c #D13A90",
"z	c #CF3C91",
"A	c #221D1F",
"B	c #211E1F",
"C	c #BC3782",
"D	c #D13A91",
"E	c #221E1F",
"F	c #221B1F",
"G	c #D13C91",
"H	c #1C1C1C",
"I	c #D03A92",
"J	c #1F171F",
"K	c #CD388D",
"L	c #D03692",
"                ",
"                ",
"                ",
"  . +@ #  $% &  ",
"  *=-;>,' )!~{  ",
"   ]^/(_:<[}|   ",
"   1234456 7}   ",
"    890a2bcd    ",
"     >efgh]i    ",
"   jklmnn0opq   ",
"   rrstuv]wuw   ",
"  krr7xpy4buuz  ",
" 7ArBA|CDvuwn]p ",
" AEEk7kFtuvu0Gw ",
"kAAkk7kHq0uwwIvz",
"J H [      q K L"};
