/* XPM */
static char * bitcoin64_xpm[] = {
"64 64 3 1",
" 	c None",
".	c #D13C92",
"+	c #231F20",
"                                                                ",
"                                                                ",
"                                                                ",
"                                                                ",
"                                                                ",
"                       .                +      +                ",
"   .      .      .      .              +      +      +      +   ",
"    .      .      .      .                   +      +      +    ",
"    .      .      .      .            +      +      +      +    ",
"     .      .      .      .          +      +      +      +     ",
"      .      .      .      .        +      +      +      +      ",
"      ..     ..     .      .        +      +      +     ++      ",
"       .      .      .      .      +      +      +      +       ",
"        .      .      .      .    ++     +      +      +        ",
"        ..     ..     ..     ..         ++     ++     ++        ",
"         .      .      .      .         +      +      +         ",
"          .      .      .     ..       ++     +      +          ",
"          ..     ..     ..     ..     ++     ++     ++          ",
"           ..     ..     ..     .     +     ++     ++           ",
"            .      .     ..     ..          ++     +            ",
"            ..     ..     ..     ..        ++     ++            ",
"             ..     ..     ..     ..      ++     ++             ",
"              ..    ..     ..     ..      ++     ++             ",
"              ..     ..     ..     ..    ++     ++              ",
"               ..     ..     ..     ..         ++               ",
"               ...    ...    ...    ...       +++               ",
"                ..     ..     ..     ..       ++                ",
"                 ..     ..     ..     ..     ++                 ",
"                 ...    ...    ...    ...   +++                 ",
"                  ...    ...    ...    ..    +                  ",
"                   ..     ..     ..    ...                      ",
"                   ...    ...    ...    ...                     ",
"                    ...    ...    ...    ...                    ",
"                     ...   ...    ...    ...                    ",
"                     ...    ...    ...    ...                   ",
"                      ...    ...    ...    ...                  ",
"                 ++   ....   ....   ....   ....                 ",
"                 ++    ...    ...    ...    ...                 ",
"                ++++    ...    ...    ...    ...                ",
"               ++++     ....   ....   ....   ....               ",
"               +++       ....   ....   ....   ...               ",
"              ++++   +    ...    ...    ...   ....              ",
"             ++++   +++   ....   ....   ....   ....             ",
"            ++++   ++++    ....   ....   ....   ....            ",
"            ++++   ++++     ....   ....  ....   ....            ",
"           ++++   ++++      ....   ....   ....   ....           ",
"          ++++   ++++   +    ....   ....   ....   ....          ",
"         +++++  +++++  +++   .....  .....  .....  .....         ",
"         ++++   ++++   ++++   ....   ....   ....   ....         ",
"        ++++   ++++   ++++     ....   ....   ....   ....        ",
"       +++++  +++++  +++++     .....  .....  .....  .....       ",
"       ++++   ++++  +++++  ++   .....  .....  .....  ....       ",
"      +++++  ++++   ++++   ++    ....   ....   ....   ....      ",
"     +++++  +++++  +++++  ++++   .....  .....  .....  .....     ",
"    +++++  +++++  +++++  +++++    .....  .....  .....  .....    ",
"    +++++  +++++  +++++ +++++      .....  ..... .....  .....    ",
"   +++++  +++++  +++++  +++++      .....  .....  .....  .....   ",
"  +++++  +++++  +++++  +++++        .....  .....  .....  .....  ",
" ++++++ ++++++ ++++++ ++++++         ..... ...... ...... ...... ",
" +++++  +++++  +++++ ++++++          ...... ...... .....  ..... ",
"                                                                ",
"                                                                ",
"                                                                ",
"                                                                "};
