/* XPM */
static char * bitcoin128_xpm[] = {
"128 128 3 1",
" 	c None",
".	c #D13C92",
"+	c #231F20",
"                                                                                                                                ",
"                                                                                                                                ",
"                                                                                                                                ",
"                                                                                                                                ",
"                                                                                                                                ",
"                                                                                                                                ",
"                                                                                                                                ",
"                                                                                                                                ",
"                                                                                                                                ",
"    .             .             .             .                                  +             +             +             +    ",
"     .             .             .             .                                              +             +             +     ",
"      .             .            .             .                                +             +             +            +      ",
"      .             .             .             .                              +             +             +             +      ",
"       .             .             .             .                            ++            +             +             +       ",
"        .            ..            ..            .                            +             +            ++            ++       ",
"        .             .             .             .                          +             +             +             +        ",
"         .             .             .             .                        ++            +             +             +         ",
"          .            ..            ..            ..                       +            ++            ++            ++         ",
"          ..            .             .             .                      +             +             +             +          ",
"           .             .             .             .                    ++            +             +             +           ",
"            .            ..            ..            ..                  ++            ++            ++            ++           ",
"            ..            ..            ..            .                  +             +            ++            ++            ",
"             .             .             .            ..                ++            ++            +             +             ",
"             ..            ..            ..            ..              ++            ++            ++            ++             ",
"              ..            ..            ..            ..             +            ++            ++            ++              ",
"               ..            ..           ..            ..            ++            ++            +            ++               ",
"               ..            ..            ..            ..          ++            ++            ++            ++               ",
"                ..            ..            ..            ..         +            ++            ++            ++                ",
"                 ..            ..           ...           ...        +           +++           +++           ++                 ",
"                 ...           ..            ..            ..                    ++            ++            ++                 ",
"                  ..            ..            ..            ..                  ++            ++            ++                  ",
"                   ..           ...           ...           ...                +++           +++           +++                  ",
"                   ...           ...           ...           ..                ++           +++           +++                   ",
"                    ..            ..            ..           ...              ++            ++            ++                    ",
"                    ...           ...           ...           ...            +++           +++           +++                    ",
"                     ...           ...           ...           ...          +++           +++           +++                     ",
"                      ...           ...           ..           ...          +++           ++           +++                      ",
"                      ...           ...           ...           ...        +++           +++           +++                      ",
"                       ...           ...           ...           ...        +           +++           +++                       ",
"                        ...           ...          ....          ....                  ++++          +++                        ",
"                        ....          ...           ...           ...                  +++          ++++                        ",
"                         ...           ...           ...           ...                +++           +++                         ",
"                          ...          ....          ....          ....              ++++          ++++                         ",
"                          ....          ....          ....          ...             ++++          ++++                          ",
"                           ....          ...           ...           ...            +++           +++                           ",
"                            ...          ....          ....          ....          ++++          ++++                           ",
"                            ....          ....          ....          ....        ++++          ++++                            ",
"                             ....          ....          ...          ....        +++          ++++                             ",
"                             ....          ....          ....          ....        ++          ++++                             ",
"                              ....          ....          ....          ....                  ++++                              ",
"                               ....          ....         .....         .....                ++++                               ",
"                               .....         .....         ....          ....               +++++                               ",
"                                ....          ....          ....          ....              ++++                                ",
"                                 ....          ....         .....         .....            ++++                                 ",
"                                 .....         .....         .....         ....           +++++                                 ",
"                                  .....         ....          ....          ....          ++++                                  ",
"                                   ....         .....         .....         .....        +++++                                  ",
"                                   .....         .....         .....         .....       ++++                                   ",
"                                    .....         .....         ....         .....        ++                                    ",
"                                    .....         .....         .....         .....        +                                    ",
"                                     .....         .....         .....         .....                                            ",
"                                      .....         .....         .....        ......                                           ",
"                                      ......        ......        .....         .....                                           ",
"                                       .....         .....         .....         .....                                          ",
"                                        .....         .....        ......        ......                                         ",
"                                        ......        ......        ......        .....                                         ",
"                                         ......        .....         .....         .....                                        ",
"                                          .....        ......        ......        ......                                       ",
"                                          ......        ......        ......        ......                                      ",
"                                           ......        ......        ......        .....                                      ",
"                                           ......        ......        ......        ......                                     ",
"                                            ......        ......        ......        ......                                    ",
"                                   ++        ......        ......        ......       .......                                   ",
"                                   ++        .......       .......       ......        ......                                   ",
"                                  ++++        ......        ......        ......        ......                                  ",
"                                 ++++++        ......        ......       .......       .......                                 ",
"                                 ++++++        .......       .......       .......       ......                                 ",
"                                ++++++          .......       ......        ......        ......                                ",
"                               +++++++           ......        ......       .......       .......                               ",
"                              +++++++            .......       .......       .......       .......                              ",
"                              +++++++             .......       .......       .......       ......                              ",
"                             +++++++               ......       .......       .......       .......                             ",
"                            +++++++       +        .......       .......       .......       .......                            ",
"                            +++++++      +++        .......       .......       .......      ........                           ",
"                           +++++++       ++++       ........      ........      .......       .......                           ",
"                          +++++++       +++++        .......       .......       .......       .......                          ",
"                         ++++++++      +++++++        .......       .......       .......      ........                         ",
"                         +++++++      ++++++++        ........      ........      ........      ........                        ",
"                        +++++++       +++++++          ........      .......       .......       .......                        ",
"                       ++++++++      ++++++++           .......       .......      ........      ........                       ",
"                      ++++++++      ++++++++            ........      ........      ........      ........                      ",
"                      ++++++++      +++++++              ........      ........      ........      .......                      ",
"                     ++++++++      ++++++++      +        .......      ........      ........      ........                     ",
"                    ++++++++      ++++++++      +++       ........      ........      ........      ........                    ",
"                   +++++++++     ++++++++      ++++        ........      ........      ........      ........                   ",
"                   ++++++++      ++++++++      +++++       .........     .........     ........      ........                   ",
"                  ++++++++      ++++++++      +++++++       ........      ........      ........      ........                  ",
"                 +++++++++     +++++++++     ++++++++        ........      ........      ........     .........                 ",
"                 ++++++++     +++++++++     +++++++++        .........     .........     .........     .........                ",
"                ++++++++      ++++++++      ++++++++          .........     ........      ........      ........                ",
"               +++++++++     +++++++++     +++++++++           ........      ........     .........     .........               ",
"              +++++++++     +++++++++     +++++++++            .........     .........     .........     .........              ",
"              ++++++++      ++++++++     +++++++++     ++       .........     .........     .........     ........              ",
"             +++++++++     +++++++++     +++++++++     ++        .........    .........     .........     .........             ",
"            +++++++++     +++++++++     +++++++++     ++++       .........     .........     .........     .........            ",
"           ++++++++++    +++++++++     +++++++++     ++++++       .........     .........     .........     .........           ",
"           +++++++++     +++++++++     +++++++++    +++++++        .........    ..........    .........     .........           ",
"          +++++++++     +++++++++     +++++++++     ++++++++       .........     .........     .........     .........          ",
"         ++++++++++    ++++++++++    +++++++++     +++++++++        .........     .........     .........    ..........         ",
"         +++++++++    ++++++++++    ++++++++++    ++++++++++        ..........    ..........    ..........    ..........        ",
"        +++++++++     +++++++++     +++++++++    ++++++++++          ..........    .........     .........     .........        ",
"       ++++++++++    ++++++++++    +++++++++     +++++++++            .........     .........     .........    ..........       ",
"      ++++++++++    ++++++++++    ++++++++++    ++++++++++            ..........    ..........    ..........    ..........      ",
"      +++++++++     +++++++++    ++++++++++    ++++++++++              ..........    ..........    ..........    .........      ",
"     ++++++++++    ++++++++++    ++++++++++    +++++++++                ..........    .........    ..........    ..........     ",
"    ++++++++++    ++++++++++    ++++++++++    ++++++++++                ..........    ..........    ..........    ..........    ",
"   +++++++++++   ++++++++++    ++++++++++    ++++++++++                  ..........    ..........    ..........    ..........   ",
"   ++++++++++    ++++++++++    ++++++++++   +++++++++++                   ..........   ...........   ..........    ..........   ",
"  ++++++++++    ++++++++++    ++++++++++    ++++++++++                    ..........    ..........    ..........    ..........  ",
" +++++++++++   ++++++++++    ++++++++++    ++++++++++                      ..........    ..........    ..........    .......... ",
" +        +    +        +    +             +                                        .             .             .    .        . ",
"                                                                                                                                ",
"                                                                                                                                ",
"                                                                                                                                ",
"                                                                                                                                ",
"                                                                                                                                ",
"                                                                                                                                ",
"                                                                                                                                "};
